<?xml version="1.0" standalone="no"?><!DOCTYPE svg PUBLIC "-//W3C//DTD SVG 1.1//EN" "http://www.w3.org/Graphics/SVG/1.1/DTD/svg11.dtd"><svg t="1620643424489" class="icon" viewBox="0 0 1024 1024" version="1.1" xmlns="http://www.w3.org/2000/svg" p-id="4310" xmlns:xlink="http://www.w3.org/1999/xlink" width="200" height="200"><defs><style type="text/css"></style></defs><path d="M295.822 741.604H257.82v47.786h-37.774V622.25h72.704c43.69 0 68.267 20.936 68.267 58.027a54.955 54.955 0 0 1-31.061 53.931l35.612 55.182h-42.78z m-3.527-31.517c20.708 0 32.654-9.557 32.654-28.672s-11.946-27.875-32.654-27.875H257.82v56.888z m138.468-56.547v41.073h75.548v31.517h-75.548v63.26h-37.66V622.25h120.149v31.29z m103.993 135.85V622.25h37.774v167.14zM680.96 622.25c51.883 0 87.95 34.134 87.95 83.514s-36.636 83.626-89.43 83.626h-69.517V622.25z m-33.223 135.396h34.133a48.242 48.242 0 0 0 48.583-51.541 49.38 49.38 0 0 0-50.176-52.11h-32.54z" fill="#707070" p-id="4311"></path><path d="M882.916 898.844H102.4V334.507h195.356v52.337H154.738v459.663h675.84V644.096h52.338v254.748z" fill="#707070" p-id="4312"></path><path d="M536.917 435.769a73.956 73.956 0 1 0 147.911 0 73.956 73.956 0 1 0-147.91 0z" fill="#13227A" p-id="4313"></path><path d="M789.618 530.773l-46.194-24.576a150.187 150.187 0 0 0-265.557-140.97l-45.511-24.576a202.524 202.524 0 1 1 357.262 190.122z" fill="#13227A" p-id="4314"></path><path d="M885.077 581.518l-46.193-24.007a258.39 258.39 0 0 0-106.838-349.298 258.73 258.73 0 0 0-349.298 106.838l-46.193-24.576a310.613 310.613 0 0 1 548.522 291.043z" fill="#13227A" p-id="4315"></path></svg>